<svg xmlns="http://www.w3.org/2000/svg" width="800" height="150" viewBox="0 0 800 150" class="WaveDrom"><g transform="translate(0.5,0.5)" text-anchor="middle" font-size="14" font-family="sans-serif" font-weight="normal"><g transform="translate(4,96)"><g stroke="black" stroke-width="1" stroke-linecap="round"><line x2="791"/><line y2="50"/><line x2="791" y1="50" y2="50"/><line x1="791" x2="791" y2="50"/><line x1="742" x2="742" y2="50"/><line x1="692" x2="692" y2="50"/><line x1="643" x2="643" y2="50"/><line x1="593" x2="593" y2="50"/><line x1="544" x2="544" y2="50"/><line x1="494" x2="494" y2="50"/><line x1="445" x2="445" y2="50"/><line x1="396" x2="396" y2="50"/><line x1="346" x2="346" y2="50"/><line x1="297" x2="297" y2="6"/><line x1="297" x2="297" y1="50" y2="44"/><line x1="247" x2="247" y2="50"/><line x1="198" x2="198" y2="6"/><line x1="198" x2="198" y1="50" y2="44"/><line x1="148" x2="148" y2="50"/><line x1="99" x2="99" y2="6"/><line x1="99" x2="99" y1="50" y2="44"/><line x1="49" x2="49" y2="50"/></g><g><g><rect x="643" width="49" height="50" style="fill-opacity:0.1;fill:hsl(80,100%,50%)"/><rect x="445" width="49" height="50" style="fill-opacity:0.1;fill:hsl(80,100%,50%)"/><rect x="247" width="99" height="50" style="fill-opacity:0.1;fill:hsl(80,100%,50%)"/></g><g transform="translate(25,-11)"><g transform="translate(742)"><text y="6">0</text></g><g transform="translate(692)"><text y="6">1</text></g><g transform="translate(643)"><text y="6">2</text></g><g transform="translate(593)"><text y="6">3</text></g><g transform="translate(544)"><text y="6">4</text></g><g transform="translate(494)"><text y="6">5</text></g><g transform="translate(445)"><text y="6">6</text></g><g transform="translate(396)"><text y="6">7</text></g><g transform="translate(346)"><text y="6">8</text></g><g transform="translate(297)"><text y="6">9</text></g><g transform="translate(247)"><text y="6">10</text></g><g transform="translate(198)"><text y="6">11</text></g><g transform="translate(148)"><text y="6">12</text></g><g transform="translate(99)"><text y="6">13</text></g><g transform="translate(49)"><text y="6">14</text></g><g transform="translate(0)"><text y="6">15</text></g></g><g transform="translate(25,25)"><g transform="translate(742)"><text y="6"><tspan>UIE</tspan></text></g><g transform="translate(692)"><text y="6"><tspan>SIE</tspan></text></g><g transform="translate(643)"><text y="6"><tspan>WPRI</tspan></text></g><g transform="translate(593)"><text y="6"><tspan>MIE</tspan></text></g><g transform="translate(544)"><text y="6"><tspan>UPIE</tspan></text></g><g transform="translate(494)"><text y="6"><tspan>SPIE</tspan></text></g><g transform="translate(445)"><text y="6"><tspan>WPRI</tspan></text></g><g transform="translate(396)"><text y="6"><tspan>MPIE</tspan></text></g><g transform="translate(346)"><text y="6"><tspan>SPP</tspan></text></g><g transform="translate(272)"><text y="6"><tspan>WPRI</tspan></text></g><g transform="translate(173)"><text y="6"><tspan>MPP</tspan></text></g><g transform="translate(74)"><text y="6"><tspan>FS</tspan></text></g><g transform="translate(0)"><text y="6"><tspan>XS</tspan></text></g></g><g transform="translate(25,58)"/></g></g><g transform="translate(4,21)"><g stroke="black" stroke-width="1" stroke-linecap="round"><line x2="791"/><line y2="50"/><line x2="791" y1="50" y2="50"/><line x1="791" x2="791" y2="50"/><line x1="742" x2="742" y2="50"/><line x1="692" x2="692" y2="50"/><line x1="643" x2="643" y2="50"/><line x1="593" x2="593" y2="50"/><line x1="544" x2="544" y2="50"/><line x1="494" x2="494" y2="50"/><line x1="445" x2="445" y2="50"/><line x1="396" x2="396" y2="6"/><line x1="396" x2="396" y1="50" y2="44"/><line x1="346" x2="346" y2="6"/><line x1="346" x2="346" y1="50" y2="44"/><line x1="297" x2="297" y2="6"/><line x1="297" x2="297" y1="50" y2="44"/><line x1="247" x2="247" y2="6"/><line x1="247" x2="247" y1="50" y2="44"/><line x1="198" x2="198" y2="6"/><line x1="198" x2="198" y1="50" y2="44"/><line x1="148" x2="148" y2="6"/><line x1="148" x2="148" y1="50" y2="44"/><line x1="99" x2="99" y2="6"/><line x1="99" x2="99" y1="50" y2="44"/><line x1="49" x2="49" y2="50"/></g><g><g><rect x="49" width="396" height="50" style="fill-opacity:0.1;fill:hsl(80,100%,50%)"/></g><g transform="translate(25,-11)"><g transform="translate(742)"><text y="6">16</text></g><g transform="translate(692)"><text y="6">17</text></g><g transform="translate(643)"><text y="6">18</text></g><g transform="translate(593)"><text y="6">19</text></g><g transform="translate(544)"><text y="6">20</text></g><g transform="translate(494)"><text y="6">21</text></g><g transform="translate(445)"><text y="6">22</text></g><g transform="translate(396)"><text y="6">23</text></g><g transform="translate(49)"><text y="6">30</text></g><g transform="translate(0)"><text y="6">31</text></g></g><g transform="translate(25,25)"><g transform="translate(742)"><text y="6"><tspan>XS</tspan></text></g><g transform="translate(692)"><text y="6"><tspan>MPRV</tspan></text></g><g transform="translate(643)"><text y="6"><tspan>SUM</tspan></text></g><g transform="translate(593)"><text y="6"><tspan>MXR</tspan></text></g><g transform="translate(544)"><text y="6"><tspan>TVM</tspan></text></g><g transform="translate(494)"><text y="6"><tspan>TW</tspan></text></g><g transform="translate(445)"><text y="6"><tspan>TSR</tspan></text></g><g transform="translate(222)"><text y="6"><tspan>WPRI</tspan></text></g><g transform="translate(0)"><text y="6"><tspan>SD</tspan></text></g></g><g transform="translate(25,58)"/></g></g></g></svg>