<svg xmlns="http://www.w3.org/2000/svg" width="800" height="98" viewBox="0 0 800 98" class="WaveDrom"><g transform="translate(0.5,0.5)" text-anchor="middle" font-size="14" font-family="sans-serif" font-weight="normal"><g transform="translate(4,21)"><g stroke="black" stroke-width="1" stroke-linecap="round"><line x2="791"/><line y2="31"/><line x2="791" y1="31" y2="31"/><line x1="791" x2="791" y2="31"/><line x1="735" x2="735" y2="3"/><line x1="735" x2="735" y1="31" y2="28"/><line x1="678" x2="678" y2="31"/><line x1="622" x2="622" y2="3"/><line x1="622" x2="622" y1="31" y2="28"/><line x1="565" x2="565" y2="3"/><line x1="565" x2="565" y1="31" y2="28"/><line x1="509" x2="509" y2="3"/><line x1="509" x2="509" y1="31" y2="28"/><line x1="452" x2="452" y2="31"/><line x1="396" x2="396" y2="3"/><line x1="396" x2="396" y1="31" y2="28"/><line x1="339" x2="339" y2="31"/><line x1="283" x2="283" y2="3"/><line x1="283" x2="283" y1="31" y2="28"/><line x1="226" x2="226" y2="31"/><line x1="170" x2="170" y2="3"/><line x1="170" x2="170" y1="31" y2="28"/><line x1="113" x2="113" y2="31"/><line x1="57" x2="57" y2="3"/><line x1="57" x2="57" y1="31" y2="28"/></g><g><g><rect x="678" width="113" height="31" style="fill-opacity:0.1;fill:hsl(45,100%,50%)"/><rect x="452" width="226" height="31" style="fill-opacity:0.1;fill:hsl(0,100%,50%)"/><rect x="339" width="113" height="31" style="fill-opacity:0.1;fill:hsl(126,100%,50%)"/><rect x="226" width="113" height="31" style="fill-opacity:0.1;fill:hsl(170,100%,50%)"/><rect x="113" width="113" height="31" style="fill-opacity:0.1;fill:hsl(170,100%,50%)"/><rect width="113" height="31" style="fill-opacity:0.1;fill:hsl(170,100%,50%)"/></g><g transform="translate(28,-11)"><g transform="translate(735)"><text y="6">0</text></g><g transform="translate(678)"><text y="6">1</text></g><g transform="translate(622)"><text y="6">2</text></g><g transform="translate(452)"><text y="6">5</text></g><g transform="translate(396)"><text y="6">6</text></g><g transform="translate(339)"><text y="6">7</text></g><g transform="translate(283)"><text y="6">8</text></g><g transform="translate(226)"><text y="6">9</text></g><g transform="translate(170)"><text y="6">10</text></g><g transform="translate(113)"><text y="6">11</text></g><g transform="translate(57)"><text y="6">12</text></g><g transform="translate(0)"><text y="6">13</text></g></g><g transform="translate(28,15)"><g transform="translate(706)"><text y="6"><tspan>Start</tspan></text></g><g transform="translate(537)"><text y="6"><tspan>CRC</tspan></text></g><g transform="translate(367)"><text y="6"><tspan>Ctrl</tspan></text></g><g transform="translate(254)"><text y="6"><tspan>Size</tspan></text></g><g transform="translate(141)"><text y="6"><tspan>Cmd</tspan></text></g><g transform="translate(28)"><text y="6"><tspan>Req</tspan></text></g></g><g transform="translate(28,39)"><g><g transform="translate(706)"><text y="6"><tspan>0x7F</tspan></text></g></g><g><g transform="translate(537)"><text y="6"><tspan>CRC16</tspan></text></g><g transform="translate(537,14)"><text y="6"><tspan>x1041</tspan></text></g><g transform="translate(537,28)"><text y="6"><tspan>Bits 13:6</tspan></text></g></g><g><g transform="translate(367)"><text y="6"><tspan>ON = x01</tspan></text></g><g transform="translate(367,14)"><text y="6"><tspan>OFF = x00</tspan></text></g></g><g transform="translate(254)"><text y="6"><tspan>x01</tspan></text></g><g transform="translate(141)"><text y="6"><tspan>xAA</tspan></text></g><g><g transform="translate(28)"><text y="6"><tspan>Req x01</tspan></text></g><g transform="translate(28,14)"><text y="6"><tspan>Rep x00</tspan></text></g></g></g></g></g></g></svg>