<svg xmlns="http://www.w3.org/2000/svg" width="800" height="112" viewBox="0 0 800 112" class="WaveDrom"><g transform="translate(0.5,0.5)" text-anchor="middle" font-size="14" font-family="sans-serif" font-weight="normal"><g transform="translate(4,21)"><g stroke="black" stroke-width="1" stroke-linecap="round"><line x2="791"/><line y2="31"/><line x2="791" y1="31" y2="31"/><line x1="791" x2="791" y2="31"/><line x1="761" x2="761" y2="3"/><line x1="761" x2="761" y1="31" y2="28"/><line x1="730" x2="730" y2="31"/><line x1="700" x2="700" y2="3"/><line x1="700" x2="700" y1="31" y2="28"/><line x1="669" x2="669" y2="3"/><line x1="669" x2="669" y1="31" y2="28"/><line x1="639" x2="639" y2="3"/><line x1="639" x2="639" y1="31" y2="28"/><line x1="608" x2="608" y2="31"/><line x1="578" x2="578" y2="3"/><line x1="578" x2="578" y1="31" y2="28"/><line x1="548" x2="548" y2="31"/><line x1="517" x2="517" y2="3"/><line x1="517" x2="517" y1="31" y2="28"/><line x1="487" x2="487" y2="31"/><line x1="456" x2="456" y2="3"/><line x1="456" x2="456" y1="31" y2="28"/><line x1="426" x2="426" y2="31"/><line x1="396" x2="396" y2="3"/><line x1="396" x2="396" y1="31" y2="28"/><line x1="365" x2="365" y2="31"/><line x1="335" x2="335" y2="3"/><line x1="335" x2="335" y1="31" y2="28"/><line x1="304" x2="304" y2="3"/><line x1="304" x2="304" y1="31" y2="28"/><line x1="274" x2="274" y2="3"/><line x1="274" x2="274" y1="31" y2="28"/><line x1="243" x2="243" y2="3"/><line x1="243" x2="243" y1="31" y2="28"/><line x1="213" x2="213" y2="3"/><line x1="213" x2="213" y1="31" y2="28"/><line x1="183" x2="183" y2="3"/><line x1="183" x2="183" y1="31" y2="28"/><line x1="152" x2="152" y2="3"/><line x1="152" x2="152" y1="31" y2="28"/><line x1="122" x2="122" y2="3"/><line x1="122" x2="122" y1="31" y2="28"/><line x1="91" x2="91" y2="3"/><line x1="91" x2="91" y1="31" y2="28"/><line x1="61" x2="61" y2="3"/><line x1="61" x2="61" y1="31" y2="28"/><line x1="30" x2="30" y2="3"/><line x1="30" x2="30" y1="31" y2="28"/></g><g><g><rect x="730" width="61" height="31" style="fill-opacity:0.1;fill:hsl(45,100%,50%)"/><rect x="608" width="122" height="31" style="fill-opacity:0.1;fill:hsl(0,100%,50%)"/><rect x="548" width="61" height="31" style="fill-opacity:0.1;fill:hsl(126,100%,50%)"/><rect x="487" width="61" height="31" style="fill-opacity:0.1;fill:hsl(170,100%,50%)"/><rect x="426" width="61" height="31" style="fill-opacity:0.1;fill:hsl(170,100%,50%)"/><rect x="365" width="61" height="31" style="fill-opacity:0.1;fill:hsl(170,100%,50%)"/><rect width="365" height="31" style="fill-opacity:0.1;fill:hsl(45,100%,50%)"/></g><g transform="translate(15,-11)"><g transform="translate(761)"><text y="6">0</text></g><g transform="translate(730)"><text y="6">1</text></g><g transform="translate(700)"><text y="6">2</text></g><g transform="translate(608)"><text y="6">5</text></g><g transform="translate(578)"><text y="6">6</text></g><g transform="translate(548)"><text y="6">7</text></g><g transform="translate(517)"><text y="6">8</text></g><g transform="translate(487)"><text y="6">9</text></g><g transform="translate(456)"><text y="6">10</text></g><g transform="translate(426)"><text y="6">11</text></g><g transform="translate(396)"><text y="6">12</text></g><g transform="translate(365)"><text y="6">13</text></g><g transform="translate(335)"><text y="6">14</text></g><g transform="translate(0)"><text y="6">25</text></g></g><g transform="translate(15,15)"><g transform="translate(745)"><text y="6"><tspan>Start</tspan></text></g><g transform="translate(654)"><text y="6"><tspan>CRC</tspan></text></g><g transform="translate(563)"><text y="6"><tspan>Ctrl</tspan></text></g><g transform="translate(502)"><text y="6"><tspan>Size</tspan></text></g><g transform="translate(441)"><text y="6"><tspan>Cmd</tspan></text></g><g transform="translate(380)"><text y="6"><tspan>Req</tspan></text></g><g transform="translate(167)"><text y="6"><tspan>Head</tspan></text></g></g><g transform="translate(15,39)"><g><g transform="translate(745)"><text y="6"><tspan>0x7F</tspan></text></g></g><g><g transform="translate(654)"><text y="6"><tspan>CRC16</tspan></text></g><g transform="translate(654,14)"><text y="6"><tspan>x1041</tspan></text></g><g transform="translate(654,28)"><text y="6"><tspan>Bits 13:6</tspan></text></g></g><g><g transform="translate(563)"><text y="6"><tspan>ON = x01</tspan></text></g><g transform="translate(563,14)"><text y="6"><tspan>OFF = x00</tspan></text></g></g><g transform="translate(502)"><text y="6"><tspan>x01</tspan></text></g><g transform="translate(441)"><text y="6"><tspan>xAA</tspan></text></g><g><g transform="translate(380)"><text y="6"><tspan>Req x01</tspan></text></g><g transform="translate(380,14)"><text y="6"><tspan>Rep x00</tspan></text></g></g><g><g><g transform="translate(335)"><text y="6">0</text></g><g transform="translate(304)"><text y="6">0</text></g><g transform="translate(274)"><text y="6">0</text></g><g transform="translate(243)"><text y="6">0</text></g><g transform="translate(213)"><text y="6">0</text></g><g transform="translate(183)"><text y="6">0</text></g><g transform="translate(152)"><text y="6">0</text></g><g transform="translate(122)"><text y="6">0</text></g><g transform="translate(91)"><text y="6">0</text></g><g transform="translate(61)"><text y="6">0</text></g><g transform="translate(30)"><text y="6">0</text></g><g transform="translate(0)"><text y="6">0</text></g></g><g><g transform="translate(335,14)"><text y="6">1</text></g><g transform="translate(304,14)"><text y="6">0</text></g><g transform="translate(274,14)"><text y="6">0</text></g><g transform="translate(243,14)"><text y="6">0</text></g><g transform="translate(213,14)"><text y="6">0</text></g><g transform="translate(183,14)"><text y="6">0</text></g><g transform="translate(152,14)"><text y="6">0</text></g><g transform="translate(122,14)"><text y="6">0</text></g><g transform="translate(91,14)"><text y="6">0</text></g><g transform="translate(61,14)"><text y="6">0</text></g><g transform="translate(30,14)"><text y="6">0</text></g><g transform="translate(0,14)"><text y="6">0</text></g></g><g><g transform="translate(335,28)"><text y="6">0</text></g><g transform="translate(304,28)"><text y="6">1</text></g><g transform="translate(274,28)"><text y="6">0</text></g><g transform="translate(243,28)"><text y="6">0</text></g><g transform="translate(213,28)"><text y="6">0</text></g><g transform="translate(183,28)"><text y="6">0</text></g><g transform="translate(152,28)"><text y="6">0</text></g><g transform="translate(122,28)"><text y="6">0</text></g><g transform="translate(91,28)"><text y="6">0</text></g><g transform="translate(61,28)"><text y="6">0</text></g><g transform="translate(30,28)"><text y="6">0</text></g><g transform="translate(0,28)"><text y="6">0</text></g></g><g transform="translate(167,42)"><text y="6"><tspan>xEB x90</tspan></text></g></g></g></g></g></g></svg>